<svg width="50" height="40" viewBox="0 0 50 40" fill="none" xmlns="http://www.w3.org/2000/svg">
<path d="M38.7296 13.9234H32.047L26.5327 1.81381C26.0891 0.839748 25.0669 0.264434 24.0027 0.393497L0.676058 3.21648C-8.5096 4.32804 -16.8374 9.29368 -22.1833 16.8432L-26.1362 21.8169C-26.4815 22.2514 -26.6697 22.79 -26.6697 23.3448V24.9955H-27.5442C-28.9005 24.9955 -30 26.095 -30 27.4513C-30 28.8075 -28.9005 29.907 -27.5442 29.907H-26.6697V32.1441C-26.6697 33.5003 -25.5701 34.5999 -24.2139 34.5999H-17.8193C-16.6054 37.545 -13.7051 39.6243 -10.3271 39.6243C-6.94913 39.6243 -4.04865 37.5452 -2.83505 34.5999H26.6312C27.8451 37.545 30.7454 39.6243 34.1232 39.6243C37.5012 39.6243 40.4017 37.5452 41.6154 34.5999H47.5439C48.9002 34.5999 49.9997 33.5003 49.9997 32.1441V25.1939C50.0003 18.9793 44.9442 13.9234 38.7296 13.9234ZM22.8077 5.48555L26.6499 13.9234H5.35248V8.05649C5.35248 7.90149 5.33639 7.75024 5.30889 7.60321L22.8077 5.48555ZM0.440744 8.2068V13.9234H-12.712C-8.92867 10.9317 -4.39802 8.94024 0.440744 8.2068ZM-10.327 34.7128C-12.0856 34.7128 -13.516 33.2822 -13.516 31.5239C-13.516 29.7655 -12.0854 28.335 -10.327 28.335C-8.56851 28.335 -7.13804 29.7656 -7.13804 31.5239C-7.13788 33.2822 -8.56835 34.7128 -10.327 34.7128ZM34.1237 34.7128C32.3651 34.7128 30.9348 33.2822 30.9348 31.5239C30.9348 29.7655 32.3652 28.335 34.1237 28.335C35.8821 28.335 37.3129 29.7656 37.3129 31.5239C37.3128 33.2822 35.8821 34.7128 34.1237 34.7128ZM45.0887 29.6884H45.0886H42.012C41.1779 26.1033 37.9589 23.4231 34.1235 23.4231C30.2882 23.4231 27.0693 26.1033 26.2352 29.6884H-2.43864C-3.27271 26.1033 -6.49163 23.4231 -10.327 23.4231C-14.1623 23.4231 -17.3814 26.1033 -18.2154 29.6884H-21.7579V24.2019L-18.2953 19.845C-18.2657 19.8079 -18.2375 19.7701 -18.2103 19.7317C-17.9959 19.4278 -17.7764 19.129 -17.552 18.835H30.414C30.4502 18.8357 30.4863 18.8357 30.5226 18.835H38.7296C42.2359 18.835 45.0886 21.6875 45.0886 25.1939V29.6884H45.0887Z" fill="#FCFCFC"/>
</svg>
