<svg width="46" height="48" viewBox="0 0 46 48" fill="none" xmlns="http://www.w3.org/2000/svg">
<path d="M31.717 19.2001C31.3776 19.2001 31.0422 19.2162 30.7087 19.2398L29.7272 15.7358C30.7822 15.0783 31.3254 13.7835 30.9734 12.526L29.8468 8.50489C29.4945 7.24754 28.3579 6.42333 27.1145 6.40958L26.3379 3.63723C26.0409 2.57707 25.1637 1.78003 24.0803 1.5855L16.8013 0.278938C15.2421 -0.000750139 13.7479 1.03675 13.4681 2.59785C13.1878 4.15879 14.2262 5.65129 15.787 5.93129L21.2937 6.91958L22.0928 9.77177L17.0287 11.0508C16.4446 9.7788 15.0043 9.09021 13.6215 9.49286L10.5587 10.3836C9.28102 10.7552 8.46259 11.9371 8.49258 13.2072L2.53788 14.7115L-19.0917 9.88708C-20.6392 9.54114 -22.1742 10.5166 -22.5194 12.0644C-22.8645 13.6122 -21.8898 15.1469 -20.3418 15.4921L-14.8653 16.7138C-14.7265 17.0208 -14.534 17.3098 -14.2817 17.5621L-7.04979 24.7941L-7.77792 25.657C-10.3332 21.7719 -14.7293 19.2005 -19.7168 19.2005C-27.5926 19.2001 -34 25.6076 -34 33.4832C-34 41.3589 -27.5926 47.7664 -19.7168 47.7664C-13.5454 47.7664 -8.27667 43.8314 -6.2851 38.339C-5.51619 38.7129 -4.72119 38.9039 -3.90306 38.9039H12.0892C14.1893 38.9039 16.1992 38.3212 17.9381 37.2371C19.5909 43.2971 25.1404 47.7665 31.717 47.7665C39.5928 47.7665 46.0002 41.3592 46.0002 33.4834C46.0002 25.6076 39.5928 19.2001 31.717 19.2001ZM-19.7168 42.0235C-24.4259 42.0235 -28.2572 38.1923 -28.2572 33.4832C-28.2572 28.7741 -24.4259 24.9429 -19.7168 24.9429C-17.0922 24.9429 -14.7411 26.134 -13.1734 28.0031L-20.7123 30.7898C-22.1998 31.3398 -22.9598 32.9912 -22.4101 34.4787C-21.9817 35.6379 -20.884 36.3553 -19.7165 36.3553C-19.3859 36.3553 -19.0497 36.2976 -18.7215 36.1765L-11.1792 33.3885C-11.1789 33.4201 -11.1768 33.4513 -11.1768 33.4831C-11.1767 38.1923 -15.0078 42.0235 -19.7168 42.0235ZM17.4343 27.8162C17.4343 29.2438 16.8784 30.5859 15.8687 31.5956C14.8592 32.6049 13.517 33.161 12.0893 33.161H-3.80213C-4.15681 32.996 -4.72276 32.3488 -5.24604 31.5603L-0.959309 26.4813C0.0030365 25.3412 -0.0682144 23.654 -1.12321 22.599L-4.7526 18.9696L1.95367 20.4655C2.15945 20.5115 2.36929 20.5344 2.57882 20.5344C2.81507 20.5344 3.05148 20.5054 3.2821 20.4469L17.4343 16.8721V27.8162ZM23.177 15.4213L23.6421 15.3038L25.1793 20.7909C24.4768 21.1541 23.8059 21.5707 23.177 22.0413V15.4213ZM31.717 42.0235C27.0079 42.0235 23.1768 38.1923 23.1768 33.4832C23.1768 30.611 24.6036 28.0674 26.7839 26.5185L28.952 34.2578C29.3073 35.5257 30.4603 36.3554 31.7156 36.3554C31.9719 36.3554 32.2326 36.3207 32.4919 36.2482C34.0189 35.8204 34.91 34.2357 34.4822 32.7087L32.3131 24.966C36.745 25.2732 40.2575 28.9745 40.2575 33.4832C40.2573 38.1923 36.4262 42.0235 31.717 42.0235Z" fill="#FCFCFC"/>
</svg>
