<svg width="47" height="44" viewBox="0 0 47 44" fill="none" xmlns="http://www.w3.org/2000/svg">
<path d="M45.5917 31.1691V21.5039C45.5917 21.0559 45.4739 20.6159 45.2502 20.2278L38.2448 8.08198C37.7887 7.2912 36.9453 6.80417 36.0323 6.80417H25.1882V3.40228C25.1882 1.9918 24.0446 0.848206 22.6341 0.848206H-28.5042C-29.9147 0.848206 -31.0583 1.99165 -31.0583 3.40228V30.9727C-32.1725 31.2472 -33 32.2504 -33 33.4494C-33 34.8599 -31.8564 36.0035 -30.4459 36.0035H-23.0948C-22.4171 40.0541 -18.8887 43.152 -14.6485 43.152C-10.4083 43.152 -6.8799 40.0543 -6.20224 36.0035H24.2452C24.9229 40.0541 28.4513 43.152 32.6915 43.152C36.9317 43.152 40.4601 40.0543 41.1378 36.0035H44.4458C45.8562 36.0035 46.9998 34.8601 46.9998 33.4494C47.0003 32.4513 46.4264 31.5893 45.5917 31.1691ZM-14.6482 38.0438C-16.5549 38.0438 -18.106 36.4927 -18.106 34.586C-18.106 32.6793 -16.5549 31.1282 -14.6482 31.1282C-12.7415 31.1282 -11.1904 32.6793 -11.1904 34.586C-11.1905 36.4927 -12.7416 38.0438 -14.6482 38.0438ZM20.0804 30.8954H-6.91959C-8.30084 28.0146 -11.246 26.0202 -14.6484 26.0202C-18.0507 26.0202 -20.996 28.0146 -22.3771 30.8954H-25.9501V5.95619H20.0804V30.8954ZM25.1884 11.9122H34.557L38.0637 17.9919H25.1884V11.9122ZM32.6918 38.0438C30.7851 38.0438 29.234 36.4927 29.234 34.586C29.234 32.6793 30.7851 31.1282 32.6918 31.1282C34.5985 31.1282 36.1496 32.6793 36.1496 34.586C36.1496 36.4927 34.5984 38.0438 32.6918 38.0438ZM40.4836 30.8954H40.4206C39.0393 28.0146 36.0942 26.0202 32.6918 26.0202C29.4638 26.0202 26.6482 27.8155 25.1882 30.4596V23.0997H40.4836V30.8954Z" fill="#FCFCFC"/>
</svg>
