<svg width="728" height="311" viewBox="0 0 728 311" fill="none" xmlns="http://www.w3.org/2000/svg">
<g opacity="0.56" filter="url(#filter0_d_6_354)">
<path d="M8 -7.64597C8 -9.35559 10.0061 -10.2771 11.3031 -9.16321L237.582 185.174C237.836 185.391 238.139 185.542 238.466 185.612L827.57 312.045C829.915 312.548 829.549 316 827.15 316H10C8.89543 316 8 315.105 8 314V-7.64597Z" fill="#D6342E"/>
<path d="M8.5 -7.64597C8.5 -8.92818 10.0046 -9.6193 10.9773 -8.7839L237.257 185.553C237.573 185.825 237.953 186.013 238.361 186.101L827.465 312.533C829.224 312.911 828.949 315.5 827.15 315.5H10C9.17157 315.5 8.5 314.828 8.5 314V-7.64597Z" stroke="url(#paint0_linear_6_354)"/>
</g>
<defs>
<filter id="filter0_d_6_354" x="-8" y="-17.6499" width="853.151" height="357.65" filterUnits="userSpaceOnUse" color-interpolation-filters="sRGB">
<feFlood flood-opacity="0" result="BackgroundImageFix"/>
<feColorMatrix in="SourceAlpha" type="matrix" values="0 0 0 0 0 0 0 0 0 0 0 0 0 0 0 0 0 0 127 0" result="hardAlpha"/>
<feOffset dy="8"/>
<feGaussianBlur stdDeviation="8"/>
<feColorMatrix type="matrix" values="0 0 0 0 0.839216 0 0 0 0 0.203922 0 0 0 0 0.180392 0 0 0 0.06 0"/>
<feBlend mode="normal" in2="BackgroundImageFix" result="effect1_dropShadow_6_354"/>
<feBlend mode="normal" in="SourceGraphic" in2="effect1_dropShadow_6_354" result="shape"/>
</filter>
<linearGradient id="paint0_linear_6_354" x1="625.664" y1="316" x2="838.717" y2="-16.6644" gradientUnits="userSpaceOnUse">
<stop stop-color="#D6342E"/>
<stop offset="1" stop-color="#D6342E" stop-opacity="0"/>
</linearGradient>
</defs>
</svg>
